<?xml version="1.0" encoding="utf-8"?>
<!-- Generator: Adobe Illustrator 16.0.4, SVG Export Plug-In . SVG Version: 6.00 Build 0)  -->
<!DOCTYPE svg PUBLIC "-//W3C//DTD SVG 1.1//EN" "http://www.w3.org/Graphics/SVG/1.1/DTD/svg11.dtd">
<svg version="1.1" id="Ebene_1" xmlns="http://www.w3.org/2000/svg" xmlns:xlink="http://www.w3.org/1999/xlink" x="0px" y="0px"
	 width="48px" height="48px" viewBox="0 0 48 48" enable-background="new 0 0 48 48" xml:space="preserve">
<g>
	<defs>
		<circle id="SVGID_1_" cx="24" cy="24" r="23"/>
	</defs>
	<clipPath id="SVGID_2_">
		<use xlink:href="#SVGID_1_"  overflow="visible"/>
	</clipPath>
	<rect x="-3.792" y="-3.792" clip-path="url(#SVGID_2_)" fill="#4BD489" width="55.584" height="55.584"/>
</g>
<g>
	<defs>
		<path id="SVGID_3_" d="M29.021,29.747c0-2.2,1.602-1.496,2.276-5.369c0.253-1.673,1.686-0.089,1.938-3.785
			c0-1.497-0.758-1.849-0.758-1.849s0.421-2.2,0.505-3.874c0.253-2.112-1.095-7.48-8.343-7.48c-7.164,0-8.512,5.369-8.344,7.48
			c0.169,1.674,0.506,3.874,0.506,3.874s-0.759,0.352-0.759,1.849c0.253,3.696,1.686,2.112,1.939,3.785
			c0.758,3.873,2.276,3.169,2.276,5.369c0,3.521-1.602,5.193-6.827,7.219c-5.226,1.937-8.597,3.96-8.597,5.369V47h19.806h19.806
			v-4.665c0-1.409-3.372-3.433-8.597-5.369C30.707,34.94,29.021,33.268,29.021,29.747z"/>
	</defs>
	<clipPath id="SVGID_4_">
		<use xlink:href="#SVGID_3_"  overflow="visible"/>
	</clipPath>
	<rect x="0.042" y="2.598" clip-path="url(#SVGID_4_)" fill="#FFFFFF" width="49.194" height="49.194"/>
</g>
<g>
	<defs>
		<circle id="SVGID_5_" cx="24" cy="24" r="23"/>
	</defs>
	<clipPath id="SVGID_6_">
		<use xlink:href="#SVGID_5_"  overflow="visible"/>
	</clipPath>
	
		<circle clip-path="url(#SVGID_6_)" fill="none" stroke="#4BD489" stroke-width="2" stroke-miterlimit="10" cx="24" cy="24" r="23"/>
</g>
<g>
</g>
<g>
</g>
<g>
</g>
<g>
</g>
<g>
</g>
<g>
</g>
<g>
</g>
<g>
</g>
<g>
</g>
<g>
</g>
<g>
</g>
<g>
</g>
<g>
</g>
<g>
</g>
<g>
</g>
</svg>
