<?xml version="1.0" encoding="UTF-8" standalone="no"?>
<svg width="23px" height="22px" viewBox="0 0 23 22" version="1.1" xmlns="http://www.w3.org/2000/svg" xmlns:xlink="http://www.w3.org/1999/xlink" xmlns:sketch="http://www.bohemiancoding.com/sketch/ns">
    <!-- Generator: Sketch 3.2.1 (9971) - http://www.bohemiancoding.com/sketch -->
    <title>icon-user-white</title>
    <desc>Created with Sketch.</desc>
    <defs></defs>
    <g id="Page-1" stroke="none" stroke-width="1" fill="none" fill-rule="evenodd" sketch:type="MSPage">
        <g id="Teaser" sketch:type="MSLayerGroup" transform="translate(-72.000000, -92.000000)">
            <g id="icon-user-white" transform="translate(70.000000, 90.000000)" sketch:type="MSShapeGroup">
                <g id="Icon" transform="translate(2.000000, 2.000000)" fill="#FFFFFF">
                    <path d="M13.7980769,12.2989474 C13.7980769,11.0884211 14.7115385,11.4757895 15.0961538,9.34526316 C15.2403846,8.42526316 16.0576923,9.29684211 16.2019231,7.26315789 C16.2019231,6.44 15.7692308,6.24631579 15.7692308,6.24631579 C15.7692308,6.24631579 16.0096154,5.03578947 16.0576923,4.11578947 C16.2019231,2.95368421 15.4326923,-1.77635684e-15 11.2980769,-1.77635684e-15 C7.21153846,-1.77635684e-15 6.44230769,2.95368421 6.53846154,4.11578947 C6.63461538,5.03578947 6.82692308,6.24631579 6.82692308,6.24631579 C6.82692308,6.24631579 6.39423077,6.44 6.39423077,7.26315789 C6.53846154,9.29684211 7.35576923,8.42526316 7.5,9.34526316 C7.93269231,11.4757895 8.79807692,11.0884211 8.79807692,12.2989474 C8.79807692,14.2357895 7.88461538,15.1557895 4.90384615,16.2694737 C1.92307692,17.3347368 0,18.4484211 0,19.2231579 L0,21.7894737 L11.2980769,21.7894737 L22.5961538,21.7894737 L22.5961538,19.2231579 C22.5961538,18.4484211 20.6730769,17.3347368 17.6923077,16.2694737 C14.7596154,15.1557895 13.7980769,14.2357895 13.7980769,12.2989474 Z" id="Icon-User"></path>
                </g>
                <rect id="Bg" opacity="0.600687966" x="0" y="0" width="26" height="26"></rect>
            </g>
        </g>
    </g>
</svg>