<?xml version="1.0" encoding="UTF-8" standalone="no"?>
<svg width="25px" height="16px" viewBox="0 0 25 16" version="1.1" xmlns="http://www.w3.org/2000/svg" xmlns:xlink="http://www.w3.org/1999/xlink" xmlns:sketch="http://www.bohemiancoding.com/sketch/ns">
    <!-- Generator: Sketch 3.2.1 (9971) - http://www.bohemiancoding.com/sketch -->
    <title>icon-email</title>
    <desc>Created with Sketch.</desc>
    <defs></defs>
    <g id="Page-1" stroke="none" stroke-width="1" fill="none" fill-rule="evenodd" sketch:type="MSPage">
        <path d="M0.833333333,1.48965517 C1.5,1.82068966 10.8888889,6.84137931 11.2222222,7.00689655 C11.6111111,7.22758621 12.0555556,7.28275862 12.5,7.28275862 C12.9444444,7.28275862 13.4444444,7.22758621 13.7777778,7.00689655 C14.1111111,6.84137931 23.5,1.82068966 24.1666667,1.48965517 C24.8888889,1.10344828 25.5,6.03961325e-14 24.2777778,6.03961325e-14 L0.777777778,6.03961325e-14 C-0.5,6.03961325e-14 0.166666667,1.10344828 0.833333333,1.48965517 L0.833333333,1.48965517 Z M24.4444444,4.24827586 C23.7222222,4.63448276 14.2222222,9.54482759 13.7777778,9.76551724 C13.2777778,10.0413793 12.9444444,10.0413793 12.5,10.0413793 C12.0555556,10.0413793 11.7222222,10.0413793 11.2222222,9.76551724 C10.7777778,9.54482759 1.33333333,4.63448276 0.555555556,4.24827586 C0,3.97241379 0,4.30344828 0,4.52413793 L0,14.6758621 C0,15.2275862 0.777777778,16 1.38888889,16 L23.6111111,16 C24.2222222,16 25,15.2275862 25,14.6758621 L25,4.52413793 C25,4.30344828 25,3.97241379 24.4444444,4.24827586 L24.4444444,4.24827586 Z" id="icon-email" fill="#FFFFFF" sketch:type="MSShapeGroup"></path>
    </g>
</svg>