<?xml version="1.0" encoding="UTF-8" standalone="no"?>
<svg width="25px" height="19px" viewBox="0 0 25 19" version="1.1" xmlns="http://www.w3.org/2000/svg" xmlns:xlink="http://www.w3.org/1999/xlink" xmlns:sketch="http://www.bohemiancoding.com/sketch/ns">
    <!-- Generator: Sketch 3.2.1 (9971) - http://www.bohemiancoding.com/sketch -->
    <title>icon-$$-white</title>
    <desc>Created with Sketch.</desc>
    <defs></defs>
    <g id="Page-1" stroke="none" stroke-width="1" fill="none" fill-rule="evenodd" sketch:type="MSPage">
        <g id="Teaser" sketch:type="MSLayerGroup" transform="translate(-71.000000, -13.000000)">
            <g id="icon-$$-white" transform="translate(70.000000, 10.000000)" sketch:type="MSShapeGroup">
                <g id="Icon" transform="translate(1.000000, 3.000000)" fill="#FFFFFF">
                    <path d="M2.83317616,12.039604 L0,12.039604 C0.133956989,13.6839099 0.622892666,14.9310555 1.4668217,15.7810781 C2.31075073,16.6311007 3.48285681,17.111844 4.98317509,17.2233223 L4.98317509,19 L6.16868851,19 L6.16868851,17.2233223 C7.17336593,17.1536483 7.99718906,16.9446295 8.64018261,16.5962596 C9.28317616,16.2478897 9.79555396,15.850754 10.1773314,15.4048405 C10.5591088,14.958927 10.8236699,14.5025693 10.9710226,14.0357536 C11.1183753,13.5689379 11.1920505,13.1822531 11.1920505,12.8756876 C11.1920505,12.5273177 11.1686084,12.1301819 11.1217234,11.6842684 C11.0748385,11.2383549 10.9241391,10.7924481 10.6696209,10.3465347 C10.4151026,9.90062117 10.0199354,9.4721326 9.48410742,9.06105611 C8.94827947,8.64997961 8.18473608,8.30509857 7.19345436,8.02640264 C7.00591457,7.97066345 6.82842422,7.9218924 6.66097799,7.88008801 C6.49353175,7.83828362 6.3294369,7.79647986 6.16868851,7.75467547 L6.16868851,4.0550055 C6.62414228,4.0550055 7.01261172,4.25008972 7.33410849,4.64026403 C7.65560527,5.03043833 7.82304899,5.5042143 7.83644469,6.06160616 L10.6897143,6.06160616 C10.6495272,5.33699674 10.5021767,4.70994031 10.2476584,4.18041804 C9.99314016,3.65089578 9.66495046,3.20847262 9.2630795,2.85313531 C8.86120853,2.497798 8.39571497,2.21910625 7.86658486,2.01705171 C7.33745476,1.81499716 6.77149497,1.67913493 6.16868851,1.60946095 L6.16868851,0 L4.98317509,0 L4.98317509,1.60946095 C4.38036863,1.65126534 3.79766447,1.77319298 3.23504512,1.97524752 C2.67242576,2.17730207 2.17679234,2.46296112 1.74812997,2.83223322 C1.3194676,3.20150533 0.974533531,3.65786307 0.713317401,4.20132013 C0.452101272,4.74477719 0.321495167,5.37183363 0.321495167,6.08250825 C0.321495167,6.77924807 0.4353569,7.3610171 0.663083782,7.82783278 C0.890810663,8.29464847 1.19555824,8.68481691 1.57733566,8.99834983 C1.95911308,9.31188276 2.39111789,9.56270533 2.87336305,9.75082508 C3.35560822,9.93894483 3.84454389,10.1026762 4.34018475,10.2420242 C4.47414174,10.2698938 4.5980501,10.3012466 4.71191354,10.3360836 C4.82577698,10.3709206 4.91619659,10.4022734 4.98317509,10.430143 L4.98317509,14.7986799 C4.36697294,14.6732667 3.85124626,14.3806404 3.4359796,13.9207921 C3.02071293,13.4609438 2.81978046,12.8338874 2.83317616,12.039604 L2.83317616,12.039604 Z M6.16868851,14.7986799 L6.16868851,10.7854785 C6.95903475,11.0084353 7.51829679,11.2557742 7.84649142,11.5275028 C8.17468604,11.7992313 8.33878089,12.206818 8.33878089,12.750275 C8.33878089,13.0847101 8.2718034,13.3738528 8.13784641,13.6177118 C8.00388942,13.8615707 7.83309682,14.0671059 7.62546349,14.2343234 C7.41783016,14.401541 7.18340894,14.5304359 6.92219281,14.6210121 C6.66097668,14.7115883 6.40981109,14.7708103 6.16868851,14.7986799 L6.16868851,14.7986799 Z M4.98317509,4.0550055 L4.98317509,7.4620462 C4.34018154,7.30876344 3.87803686,7.10671193 3.59672718,6.85588559 C3.3154175,6.60505925 3.17476477,6.24972727 3.17476477,5.78987899 C3.17476477,5.49724826 3.22499789,5.24294204 3.32546563,5.0269527 C3.42593337,4.81096335 3.56323723,4.62981371 3.73738131,4.48349835 C3.9115254,4.33718299 4.10576012,4.22918993 4.3200913,4.15951595 C4.53442249,4.08984197 4.7554482,4.0550055 4.98317509,4.0550055 L4.98317509,4.0550055 Z M15.6795872,12.039604 L12.846411,12.039604 C12.980368,13.6839099 13.4693037,14.9310555 14.3132327,15.7810781 C15.1571618,16.6311007 16.3292678,17.111844 17.8295861,17.2233223 L17.8295861,19 L19.0150996,19 L19.0150996,17.2233223 C20.019777,17.1536483 20.8436001,16.9446295 21.4865937,16.5962596 C22.1295872,16.2478897 22.641965,15.850754 23.0237424,15.4048405 C23.4055198,14.958927 23.6700809,14.5025693 23.8174336,14.0357536 C23.9647863,13.5689379 24.0384615,13.1822531 24.0384615,12.8756876 C24.0384615,12.5273177 24.0150194,12.1301819 23.9681345,11.6842684 C23.9212495,11.2383549 23.7705502,10.7924481 23.5160319,10.3465347 C23.2615136,9.90062117 22.8663464,9.4721326 22.3305185,9.06105611 C21.7946905,8.64997961 21.0311471,8.30509857 20.0398654,8.02640264 C19.8523256,7.97066345 19.6748353,7.9218924 19.507389,7.88008801 C19.3399428,7.83828362 19.1758479,7.79647986 19.0150996,7.75467547 L19.0150996,4.0550055 C19.4705533,4.0550055 19.8590228,4.25008972 20.1805195,4.64026403 C20.5020163,5.03043833 20.66946,5.5042143 20.6828557,6.06160616 L23.5361253,6.06160616 C23.4959382,5.33699674 23.3485878,4.70994031 23.0940695,4.18041804 C22.8395512,3.65089578 22.5113615,3.20847262 22.1094905,2.85313531 C21.7076196,2.497798 21.242126,2.21910625 20.7129959,2.01705171 C20.1838658,1.81499716 19.617906,1.67913493 19.0150996,1.60946095 L19.0150996,0 L17.8295861,0 L17.8295861,1.60946095 C17.2267797,1.65126534 16.6440755,1.77319298 16.0814562,1.97524752 C15.5188368,2.17730207 15.0232034,2.46296112 14.594541,2.83223322 C14.1658786,3.20150533 13.8209446,3.65786307 13.5597284,4.20132013 C13.2985123,4.74477719 13.1679062,5.37183363 13.1679062,6.08250825 C13.1679062,6.77924807 13.2817679,7.3610171 13.5094948,7.82783278 C13.7372217,8.29464847 14.0419693,8.68481691 14.4237467,8.99834983 C14.8055241,9.31188276 15.2375289,9.56270533 15.7197741,9.75082508 C16.2020193,9.93894483 16.6909549,10.1026762 17.1865958,10.2420242 C17.3205528,10.2698938 17.4444611,10.3012466 17.5583246,10.3360836 C17.672188,10.3709206 17.7626076,10.4022734 17.8295861,10.430143 L17.8295861,14.7986799 C17.213384,14.6732667 16.6976573,14.3806404 16.2823906,13.9207921 C15.867124,13.4609438 15.6661915,12.8338874 15.6795872,12.039604 L15.6795872,12.039604 Z M19.0150996,14.7986799 L19.0150996,10.7854785 C19.8054458,11.0084353 20.3647078,11.2557742 20.6929025,11.5275028 C21.0210971,11.7992313 21.1851919,12.206818 21.1851919,12.750275 C21.1851919,13.0847101 21.1182144,13.3738528 20.9842575,13.6177118 C20.8503005,13.8615707 20.6795079,14.0671059 20.4718745,14.2343234 C20.2642412,14.401541 20.02982,14.5304359 19.7686039,14.6210121 C19.5073877,14.7115883 19.2562221,14.7708103 19.0150996,14.7986799 L19.0150996,14.7986799 Z M17.8295861,4.0550055 L17.8295861,7.4620462 C17.1865926,7.30876344 16.7244479,7.10671193 16.4431382,6.85588559 C16.1618285,6.60505925 16.0211758,6.24972727 16.0211758,5.78987899 C16.0211758,5.49724826 16.0714089,5.24294204 16.1718767,5.0269527 C16.2723444,4.81096335 16.4096483,4.62981371 16.5837924,4.48349835 C16.7579364,4.33718299 16.9521712,4.22918993 17.1665023,4.15951595 C17.3808335,4.08984197 17.6018592,4.0550055 17.8295861,4.0550055 L17.8295861,4.0550055 Z" id="Icon-$$"></path>
                </g>
                <rect id="Bg" opacity="0.600687966" x="0" y="0" width="26" height="26"></rect>
            </g>
        </g>
    </g>
</svg>