<?xml version="1.0" encoding="UTF-8" standalone="no"?>
<svg width="8px" height="14px" viewBox="0 0 8 14" version="1.1" xmlns="http://www.w3.org/2000/svg" xmlns:xlink="http://www.w3.org/1999/xlink" xmlns:sketch="http://www.bohemiancoding.com/sketch/ns">
    <!-- Generator: Sketch 3.2.1 (9971) - http://www.bohemiancoding.com/sketch -->
    <title>icon-back</title>
    <desc>Created with Sketch.</desc>
    <defs></defs>
    <g id="Page-1" stroke="none" stroke-width="1" fill="none" fill-rule="evenodd" sketch:type="MSPage">
        <path d="M0,7.012 C0,7.3316347 0.128571429,7.61930594 0.353571429,7.8750137 L5.30357143,13.5325479 C5.59285714,13.8521826 5.91428571,14.012 6.26785714,14.012 C6.94285714,14.012 7.52142857,13.4366575 7.52142857,12.7654247 C7.52142857,12.4777534 7.45714286,12.2220457 7.2,11.9663379 L2.66785714,7.012 L7.2,2.0576621 C7.45714286,1.80195434 7.52142857,1.54624658 7.52142857,1.25857534 C7.52142857,0.587342466 6.94285714,0.012 6.26785714,0.012 C5.91428571,0.012 5.59285714,0.171817352 5.30357143,0.491452055 L0.353571429,6.1489863 C0.128571429,6.40469406 0,6.6923653 0,7.012 L0,7.012 Z" id="icon-back" fill="#2D2D2D" sketch:type="MSShapeGroup"></path>
    </g>
</svg>