<?xml version="1.0" encoding="UTF-8" standalone="no"?>
<svg width="12px" height="12px" viewBox="0 0 12 12" version="1.1" xmlns="http://www.w3.org/2000/svg" xmlns:xlink="http://www.w3.org/1999/xlink" xmlns:sketch="http://www.bohemiancoding.com/sketch/ns">
    <!-- Generator: Sketch 3.2.1 (9971) - http://www.bohemiancoding.com/sketch -->
    <title>Icon edit</title>
    <desc>Created with Sketch.</desc>
    <defs></defs>
    <g id="Page-1" stroke="none" stroke-width="1" fill="none" fill-rule="evenodd" sketch:type="MSPage">
        <path d="M11.0394652,0.933717579 C9.93244363,-0.172910663 9.10217744,0.0115273775 9.10217744,0.0115273775 L5.22760191,3.88472622 L0.768764987,8.31123919 L0,12 L3.65932134,11.2007685 L8.11815826,6.77425552 L11.9927338,2.90105668 C11.9927338,2.90105668 12.1464868,2.07108549 11.0394652,0.933717579 L11.0394652,0.933717579 Z M3.44406714,10.7704131 L2.21404316,11.0470701 C2.09104076,10.8011527 1.93728777,10.585975 1.66053237,10.309318 C1.41452758,10.0634006 1.16852278,9.90970221 0.953268583,9.78674352 L1.23002398,8.55715658 L1.56828057,8.1882805 C1.56828057,8.1882805 2.27554436,8.1882805 3.01355875,8.95677233 C3.78232373,9.72526417 3.81307433,10.401537 3.81307433,10.401537 L3.44406714,10.7704131 Z" id="Icon-edit" fill="#000000" sketch:type="MSShapeGroup"></path>
    </g>
</svg>