<?xml version="1.0" encoding="UTF-8" standalone="no"?>
<svg width="30px" height="26px" viewBox="0 0 30 26" version="1.1" xmlns="http://www.w3.org/2000/svg" xmlns:xlink="http://www.w3.org/1999/xlink" xmlns:sketch="http://www.bohemiancoding.com/sketch/ns">
    <!-- Generator: Sketch 3.2.1 (9971) - http://www.bohemiancoding.com/sketch -->
    <title>icon-box</title>
    <desc>Created with Sketch.</desc>
    <defs></defs>
    <g id="Page-1" stroke="none" stroke-width="1" fill="none" fill-rule="evenodd" sketch:type="MSPage">
        <g id="Breadcrumb-26px" sketch:type="MSLayerGroup" transform="translate(-68.000000, 0.000000)" fill="#2D2D2D">
            <path d="M97,0 L69,0 C68.4666667,0 68,0.455 68,0.975 L68,4.875 L98,4.875 L98,0.975 C98,0.455 97.5333333,0 97,0 L97,0 Z M69.6666667,23.725 C69.6666667,25.025 70.7333333,26 72,26 L94,26 C95.2666667,26 96.3333333,25.025 96.3333333,23.725 L96.3333333,6.5 L69.6666667,6.5 L69.6666667,23.725 Z M78,9.75 L88,9.75 L88,13 L78,13 L78,9.75 Z" id="icon-box" sketch:type="MSShapeGroup"></path>
        </g>
    </g>
</svg>