<?xml version="1.0" encoding="UTF-8" standalone="no"?>
<svg width="16px" height="26px" viewBox="0 0 16 26" version="1.1" xmlns="http://www.w3.org/2000/svg" xmlns:xlink="http://www.w3.org/1999/xlink" xmlns:sketch="http://www.bohemiancoding.com/sketch/ns">
    <!-- Generator: Sketch 3.2.1 (9971) - http://www.bohemiancoding.com/sketch -->
    <title>icon-hourglass</title>
    <desc>Created with Sketch.</desc>
    <defs></defs>
    <g id="Page-1" stroke="none" stroke-width="1" fill="none" fill-rule="evenodd" sketch:type="MSPage">
        <g id="Breadcrumb-26px" sketch:type="MSLayerGroup" transform="translate(-36.000000, 0.000000)" fill="#000000">
            <path d="M52,5.928 L52,2.86 C52,1.872 48.4,0 44,0 C39.6,0 36,1.872 36,2.86 L36,5.928 C36,8.684 41.5428571,11.024 41.5428571,13 C41.5428571,14.924 36,17.264 36,20.02 L36,23.088 C36,24.128 39.6,26 44,26 C48.4,26 52,24.128 52,23.088 L52,20.02 C52,17.264 46.4571429,14.924 46.4571429,13 C46.4571429,11.024 52,8.684 52,5.928 L52,5.928 Z M38.2285714,3.016 C39.2,2.444 41.0857143,1.612 44.0571429,1.612 C47.0857143,1.612 49.8285714,3.016 49.8285714,3.016 C50,3.12 50.8,3.484 50.2857143,3.796 C49.0857143,4.42 46.7428571,5.096 44,5.096 C41.3142857,5.096 39.0285714,4.368 37.8285714,3.744 C37.3142857,3.432 38.2285714,3.016 38.2285714,3.016 L38.2285714,3.016 Z M44.7428571,13 C44.7428571,14.508 46.1714286,15.548 47.6571429,16.848 C48.7428571,17.836 50.2857143,19.188 50.2857143,20.02 L50.2857143,21.736 C48.8571429,21.112 44.7428571,20.488 44.7428571,18.512 C44.7428571,17.472 43.2571429,17.472 43.2571429,18.512 C43.2571429,20.488 39.1428571,21.112 37.7714286,21.736 L37.7714286,20.02 C37.7714286,19.188 39.2571429,17.836 40.3428571,16.848 C41.8857143,15.548 43.3142857,14.508 43.3142857,13 C43.3142857,11.44 41.8857143,10.452 40.3428571,9.1 C39.2571429,8.112 37.7714286,6.812 37.7714286,5.928 L37.6571429,4.628 C39.1428571,5.356 41.4857143,6.032 44,6.032 C46.5142857,6.032 48.8571429,5.356 50.3428571,4.628 L50.2857143,5.928 C50.2857143,6.812 48.7428571,8.112 47.6571429,9.1 C46.1714286,10.452 44.7428571,11.44 44.7428571,13 L44.7428571,13 Z" id="icon-hourglass" sketch:type="MSShapeGroup"></path>
        </g>
    </g>
</svg>