<?xml version="1.0" encoding="UTF-8" standalone="no"?>
<svg width="20px" height="26px" viewBox="0 0 20 26" version="1.1" xmlns="http://www.w3.org/2000/svg" xmlns:xlink="http://www.w3.org/1999/xlink" xmlns:sketch="http://www.bohemiancoding.com/sketch/ns">
    <!-- Generator: Sketch 3.2.1 (9971) - http://www.bohemiancoding.com/sketch -->
    <title>icon-location</title>
    <desc>Created with Sketch.</desc>
    <defs></defs>
    <g id="Page-1" stroke="none" stroke-width="1" fill="none" fill-rule="evenodd" sketch:type="MSPage">
        <g id="Breadcrumb-26px" sketch:type="MSLayerGroup" fill="#000000">
            <path d="M10,-7.10542736e-15 C11.8141684,-7.10542736e-15 13.4881929,0.445346281 15.0221239,1.3360522 C16.5560549,2.22675812 17.7691696,3.42495169 18.6615044,4.93066884 C19.5538393,6.436386 20,8.05871887 20,9.79771615 C20,11.5367134 19.4616573,13.4594783 18.3849558,15.5660685 C17.3082542,17.1778221 16.0803904,18.8531724 14.7013274,20.5921697 C13.3222645,22.3311669 12.2123936,23.6672058 11.3716814,24.6003263 L10.1106195,26 C9.96312611,25.8727563 9.76401305,25.6889626 9.51327434,25.4486134 C9.26253562,25.2082642 8.77212754,24.7099005 8.0420354,23.9535073 C7.31194325,23.1971142 6.60398573,22.4265945 5.91814159,21.641925 C5.23229746,20.8572555 4.46534347,19.8994075 3.61725664,18.7683524 C2.7691698,17.6372972 2.02802677,16.541604 1.39380531,15.4812398 C0.464597124,13.5160315 -3.7658765e-13,11.6639565 -3.7658765e-13,9.92495922 C-3.7658765e-13,8.17182375 0.44616073,6.5353529 1.33849558,5.01549755 C2.23083042,3.49564221 3.44763241,2.27977617 4.98893805,1.36786297 C6.53024369,0.455949763 8.20058097,-7.10542736e-15 10,-7.10542736e-15 L10,-7.10542736e-15 Z M9.97787611,14.8238173 C11.5560551,14.8238173 12.9019118,14.2901087 14.0154867,13.2226754 C15.1290616,12.1552421 15.6858407,10.8651517 15.6858407,9.35236542 C15.6858407,7.83957917 15.1290616,6.55302325 14.0154867,5.49265905 C12.9019118,4.43229486 11.5560551,3.90212072 9.97787611,3.90212072 C8.39969712,3.90212072 7.05752765,4.43582936 5.95132743,5.50326264 C4.84512721,6.57069593 4.2920354,7.85371736 4.2920354,9.35236542 C4.2920354,10.8651517 4.84881449,12.1552421 5.96238938,13.2226754 C7.07596427,14.2901087 8.41444646,14.8238173 9.97787611,14.8238173 L9.97787611,14.8238173 Z" id="icon-location" sketch:type="MSShapeGroup"></path>
        </g>
    </g>
</svg>