<?xml version="1.0" encoding="UTF-8" standalone="no"?>
<svg width="22px" height="22px" viewBox="0 0 22 22" version="1.1" xmlns="http://www.w3.org/2000/svg" xmlns:xlink="http://www.w3.org/1999/xlink" xmlns:sketch="http://www.bohemiancoding.com/sketch/ns">
    <!-- Generator: Sketch 3.2.1 (9971) - http://www.bohemiancoding.com/sketch -->
    <title>icon-clock-white</title>
    <desc>Created with Sketch.</desc>
    <defs></defs>
    <g id="Page-1" stroke="none" stroke-width="1" fill="none" fill-rule="evenodd" sketch:type="MSPage">
        <g id="Teaser" sketch:type="MSLayerGroup" transform="translate(-72.000000, -52.000000)">
            <g id="icon-clock-white" transform="translate(70.000000, 50.000000)" sketch:type="MSShapeGroup">
                <g id="Icon" transform="translate(2.000000, 2.000000)" fill="#FFFFFF">
                    <path d="M11,0 C4.92608696,0 0,4.92608696 0,11 C0,17.073913 4.92608696,22 11,22 C17.073913,22 22,17.073913 22,11 C22,4.92608696 17.073913,0 11,0 L11,0 Z M11,19.6086957 C6.26521739,19.6086957 2.39130435,15.7347826 2.39130435,11 C2.39130435,6.2173913 6.26521739,2.39130435 11,2.39130435 C15.7826087,2.39130435 19.6086957,6.2173913 19.6086957,11 C19.6086957,15.7347826 15.7826087,19.6086957 11,19.6086957 L11,19.6086957 Z M11.8608696,4.7826087 L10.1869565,4.7826087 L10.1869565,11.3347826 L14.2521739,15.4 L15.4478261,14.2043478 L11.8608696,10.6173913 L11.8608696,4.7826087 Z" id="Icon-Time"></path>
                </g>
                <rect id="Bg" opacity="0.600687966" x="0" y="0" width="26" height="26"></rect>
            </g>
        </g>
    </g>
</svg>