<?xml version="1.0" encoding="UTF-8" standalone="no"?>
<svg width="151px" height="17px" viewBox="0 0 151 17" version="1.1" xmlns="http://www.w3.org/2000/svg" xmlns:xlink="http://www.w3.org/1999/xlink" xmlns:sketch="http://www.bohemiancoding.com/sketch/ns">
    <!-- Generator: Sketch 3.2.1 (9971) - http://www.bohemiancoding.com/sketch -->
    <title>logo-crowd-beta</title>
    <desc>Created with Sketch.</desc>
    <defs></defs>
    <g id="Page-1" stroke="none" stroke-width="1" fill="none" fill-rule="evenodd" sketch:type="MSPage">
        <g id="logo-crowd-beta" sketch:type="MSLayerGroup" transform="translate(0.000000, -6.000000)">
            <text id="CROWD" sketch:type="MSTextLayer" font-family="Source Sans Pro" font-size="22" font-weight="bold" letter-spacing="0.916666687" fill="#000000">
                <tspan x="0" y="22">CROWD</tspan>
            </text>
            <g id="BG-3-+-Beta-ASIT" transform="translate(85.000000, 7.000000)" sketch:type="MSShapeGroup">
                <rect id="BG-3" fill="#2D2D2D" x="0" y="0.406153846" width="66" height="14.7692308" rx="1"></rect>
                <path d="M5.58548571,11.2941176 L8.32354286,11.2941176 C9.91885714,11.2941176 11.1860571,10.6277647 11.1860571,9.12564706 C11.1860571,8.14305882 10.6429714,7.58964706 9.59074286,7.39764706 L9.59074286,7.35247059 C10.4506286,7.12658824 10.824,6.41505882 10.824,5.76 C10.824,4.34823529 9.636,3.93035294 8.10857143,3.93035294 L5.58548571,3.93035294 L5.58548571,11.2941176 Z M7.24868571,6.90070588 L7.24868571,5.21788235 L8.04068571,5.21788235 C8.82137143,5.21788235 9.19474286,5.44376471 9.19474286,5.99717647 C9.19474286,6.55058824 8.844,6.90070588 8.02937143,6.90070588 L7.24868571,6.90070588 Z M7.24868571,10.0065882 L7.24868571,8.07529412 L8.18777143,8.07529412 C9.10422857,8.07529412 9.5568,8.35764706 9.5568,9.00141176 C9.5568,9.66776471 9.09291429,10.0065882 8.18777143,10.0065882 L7.24868571,10.0065882 Z M12.902057,11.2941176 L17.6314284,11.2941176 L17.6314284,9.89364706 L14.565257,9.89364706 L14.565257,8.19952941 L17.0770284,8.19952941 L17.0770284,6.81035294 L14.565257,6.81035294 L14.565257,5.33082353 L17.5182856,5.33082353 L17.5182856,3.93035294 L12.902057,3.93035294 L12.902057,11.2941176 Z M21.0106283,11.2941176 L22.6851426,11.2941176 L22.6851426,5.33082353 L24.7103997,5.33082353 L24.7103997,3.93035294 L18.9853711,3.93035294 L18.9853711,5.33082353 L21.0106283,5.33082353 L21.0106283,11.2941176 Z M27.433371,8.24470588 L27.6143996,7.56705882 C27.8180567,6.83294118 28.0103996,5.97458824 28.1914281,5.19529412 L28.2366853,5.19529412 C28.4290281,5.96329412 28.6326853,6.83294118 28.8363424,7.56705882 L29.0060567,8.24470588 L27.433371,8.24470588 Z M29.7980567,11.2941176 L31.5630853,11.2941176 L29.254971,3.93035294 L27.2523424,3.93035294 L24.9442281,11.2941176 L26.641371,11.2941176 L27.0939424,9.54352941 L29.3454853,9.54352941 L29.7980567,11.2941176 Z M37.212685,8.24470588 L37.3937136,7.56705882 C37.5973707,6.83294118 37.7897136,5.97458824 37.9707422,5.19529412 L38.0159993,5.19529412 C38.2083422,5.96329412 38.4119993,6.83294118 38.6156564,7.56705882 L38.7853707,8.24470588 L37.212685,8.24470588 Z M39.5773707,11.2941176 L41.3423993,11.2941176 L39.034285,3.93035294 L37.0316564,3.93035294 L34.7235422,11.2941176 L36.420685,11.2941176 L36.8732564,9.54352941 L39.1247993,9.54352941 L39.5773707,11.2941176 Z M42.141942,10.368 C42.8886849,11.0682353 43.9069706,11.4296471 44.8686849,11.4296471 C46.6337134,11.4296471 47.6519992,10.368 47.6519992,9.14823529 C47.6519992,8.10917647 47.0862849,7.51058824 46.1924563,7.14917647 L45.2420563,6.76517647 C44.6084563,6.50541176 44.121942,6.34729412 44.121942,5.89552941 C44.121942,5.47764706 44.4839992,5.22917647 45.0610277,5.22917647 C45.6493706,5.22917647 46.101942,5.44376471 46.5884563,5.81647059 L47.4370277,4.76611765 C46.8034277,4.13364706 45.9095992,3.79482353 45.0610277,3.79482353 C43.5222849,3.79482353 42.4361134,4.76611765 42.4361134,5.98588235 C42.4361134,7.05882353 43.1602277,7.69129412 43.9182849,7.99623529 L44.8799992,8.40282353 C45.5249134,8.67388235 45.943542,8.82070588 45.943542,9.28376471 C45.943542,9.72423529 45.6041134,9.99529412 44.913942,9.99529412 C44.3029706,9.99529412 43.6241134,9.67905882 43.092342,9.22729412 L42.141942,10.368 Z M52.2041132,11.2941176 L53.8673132,11.2941176 L53.8673132,3.93035294 L52.2041132,3.93035294 L52.2041132,11.2941176 Z M57.5180559,11.2941176 L59.1925702,11.2941176 L59.1925702,5.33082353 L61.2178273,5.33082353 L61.2178273,3.93035294 L55.4927987,3.93035294 L55.4927987,5.33082353 L57.5180559,5.33082353 L57.5180559,11.2941176 Z" id="Beta-ASIT" fill="#FFFFFF"></path>
            </g>
        </g>
    </g>
</svg>