<?xml version="1.0" encoding="UTF-8" standalone="no"?>
<svg width="153px" height="27px" viewBox="0 0 153 27" version="1.1" xmlns="http://www.w3.org/2000/svg" xmlns:xlink="http://www.w3.org/1999/xlink" xmlns:sketch="http://www.bohemiancoding.com/sketch/ns">
    <!-- Generator: Sketch 3.2.1 (9971) - http://www.bohemiancoding.com/sketch -->
    <title>Crowd-Logo</title>
    <desc>Created with Sketch.</desc>
    <defs></defs>
    <g id="Page-1" stroke="none" stroke-width="1" fill="none" fill-rule="evenodd" sketch:type="MSPage">
        <g id="Crowd-Logo" sketch:type="MSLayerGroup" transform="translate(0.000000, -1.000000)">
            <g id="typo" transform="translate(45.096774, 5.226695)" fill="#2D2D2D" sketch:type="MSShapeGroup">
                <path d="M0.0629499444,14.5846254 L3.36446719,14.5846254 L4.02101891,12.5819085 L8.61688098,12.5819085 L9.2734327,14.5846254 L12.5937086,14.5846254 L7.90405339,0.921229217 L4.75260512,0.921229217 L0.0629499444,14.5846254 Z M6.32832925,5.61919148 L7.6414327,9.60590846 L5.01522581,9.60590846 L6.32832925,5.61919148 Z M18.8778462,14.7905122 C22.0668117,14.7905122 23.886398,12.6567764 23.886398,10.3171537 C23.886398,7.60319148 21.710398,6.77964431 19.8720531,6.21813488 C18.5214324,5.80636129 17.3396393,5.52560658 17.3396393,4.70205941 C17.3396393,4.06568205 17.8836393,3.56032356 18.8215704,3.56032356 C19.7407428,3.56032356 20.5473635,4.06568205 21.0538462,4.88922922 L23.6800531,2.88651224 C22.6295704,1.70734242 21.2226738,0.715342425 18.8028117,0.715342425 C15.9890186,0.715342425 14.0381221,2.53088959 14.0381221,4.9079462 C14.0381221,7.62190846 16.1578462,8.38930469 17.9586738,8.91338016 C19.2905359,9.30643676 20.4910876,9.5684745 20.4910876,10.4107387 C20.4910876,11.08455 19.8720531,11.7209273 18.8778462,11.7209273 C17.8648807,11.7209273 16.8894324,11.1219839 16.2516393,10.055116 L13.3815704,12.3011537 C14.5821221,13.6300594 16.1390876,14.7905122 18.8778462,14.7905122 L18.8778462,14.7905122 Z M25.5183977,14.5846254 L28.7636391,14.5846254 L28.7636391,11.3091537 L25.5183977,11.3091537 L25.5183977,14.5846254 Z M38.1054319,14.7717953 C40.9567423,14.7717953 43.2077767,13.2370028 44.3895698,10.9909651 L43.095225,10.3171537 C42.1948112,12.1327009 40.4877767,13.3867387 38.1054319,13.3867387 C34.9539836,13.3867387 32.5716388,10.8412292 32.5716388,7.75292733 C32.5716388,4.66462544 34.9539836,2.11911601 38.1054319,2.11911601 C40.225156,2.11911601 42.007225,3.27956884 42.945156,4.98281412 L44.2019836,4.25285186 C42.9826733,2.15654997 40.7128802,0.734059406 38.1054319,0.734059406 C34.2223974,0.734059406 31.0709491,3.87851224 31.0709491,7.75292733 C31.0709491,11.6273424 34.2223974,14.7717953 38.1054319,14.7717953 L38.1054319,14.7717953 Z M47.1846041,14.5846254 L48.6477765,14.5846254 L48.6477765,2.26885186 L51.2739834,2.26885186 C53.318673,2.26885186 54.5755006,3.54160658 54.5755006,5.26356884 C54.5755006,6.79836129 53.318673,8.33315375 51.2552247,8.33315375 L50.3172937,8.33315375 L54.4441903,14.5846254 L56.1512247,14.5846254 L52.6808799,9.41873865 C54.7818454,8.95081412 56.038673,7.1914179 56.038673,5.26356884 C56.038673,2.84907827 54.0690178,0.921229217 51.3865351,0.921229217 L47.1846041,0.921229217 L47.1846041,14.5846254 Z M65.9807417,14.7717953 C69.8637762,14.7717953 73.0152245,11.6273424 73.0152245,7.75292733 C73.0152245,3.87851224 69.8637762,0.734059406 65.9807417,0.734059406 C62.0977072,0.734059406 58.946259,3.87851224 58.946259,7.75292733 C58.946259,11.6273424 62.0977072,14.7717953 65.9807417,14.7717953 L65.9807417,14.7717953 Z M65.9807417,13.3867387 C62.8292934,13.3867387 60.4469486,10.8412292 60.4469486,7.75292733 C60.4469486,4.66462544 62.8292934,2.11911601 65.9807417,2.11911601 C69.13219,2.11911601 71.5145348,4.66462544 71.5145348,7.75292733 C71.5145348,10.8412292 69.13219,13.3867387 65.9807417,13.3867387 L65.9807417,13.3867387 Z M78.8303966,14.5846254 L80.3310863,14.5846254 L84.101569,3.20470092 L87.8345346,14.5846254 L89.3164656,14.5846254 L93.5371552,0.921229217 L92.0364656,0.921229217 L88.5848794,12.3385877 L84.8331552,0.921229217 L83.4262587,0.921229217 L79.6370173,12.3198707 L76.3730173,0.921229217 L74.8160518,0.921229217 L78.8303966,14.5846254 Z M96.5010171,14.5846254 L100.384052,14.5846254 C104.417155,14.5846254 107.456052,11.6460594 107.456052,7.75292733 C107.456052,3.87851224 104.585983,0.921229217 100.327776,0.921229217 L96.5010171,0.921229217 L96.5010171,14.5846254 Z M100.215224,2.26885186 C103.741845,2.26885186 105.955362,4.62719148 105.955362,7.75292733 C105.955362,10.8599462 103.591776,13.2182858 100.2715,13.2182858 L97.9641895,13.2182858 L97.9641895,2.26885186 L100.215224,2.26885186 Z" id="AS.CROWD"></path>
            </g>
            <g id="diamond" fill="#000000" sketch:type="MSShapeGroup">
                <g id="Icon-+-Dots" transform="translate(0.943396, 0.792453)">
                    <g id="Icon" transform="translate(0.964440, 1.789220)">
                        <path d="M20.6147861,8.91528672 C20.4623767,8.91528672 20.3212568,8.83754118 20.2404657,8.70994088 L15.1827307,0.697618048 C15.0980588,0.563393686 15.0934724,0.394305853 15.1714411,0.25554924 C15.249057,0.117141261 15.39688,0.0310284889 15.5570511,0.0310284889 L25.60937,0.0296339501 C25.7691882,0.0296339501 25.9163056,0.115049453 25.9942744,0.253108797 C26.0725959,0.391168141 26.0687151,0.559558704 25.9851016,0.694131701 L20.9901649,8.7081977 C20.9100794,8.83649527 20.7686067,8.91528672 20.6158445,8.91563535 C20.6154917,8.91528672 20.6151389,8.91528672 20.6147861,8.91528672 L20.6147861,8.91528672 Z M16.3519086,0.90296389 L20.6123165,7.65218318 L24.8198045,0.901569351 L16.3519086,0.90296389 L16.3519086,0.90296389 Z" id="Shape"></path>
                        <path d="M10.5300096,8.91528672 C10.377953,8.91528672 10.2371859,8.83788981 10.1563948,8.71098678 L5.07219982,0.698663952 C4.98682231,0.56443959 4.98223592,0.395003123 5.05985183,0.255897875 C5.13746774,0.117489896 5.28529077,0.0310284889 5.44581459,0.0310284889 L15.5570511,0.0296339501 C15.7168693,0.0296339501 15.8643395,0.115398088 15.9423082,0.253457432 C16.0202769,0.391516776 16.0163961,0.560953243 15.932077,0.695177605 L10.9046828,8.70889497 C10.8242445,8.83684391 10.6831246,8.91493808 10.5307152,8.91528672 C10.5307152,8.91528672 10.5303624,8.91528672 10.5300096,8.91528672 L10.5300096,8.91528672 Z M6.24243608,0.90296389 L10.52754,7.65601816 L14.7646632,0.901569351 L6.24243608,0.90296389 L6.24243608,0.90296389 Z" id="Shape"></path>
                        <path d="M10.5367128,8.91528672 C10.5349488,8.91528672 10.5321264,8.91563535 10.5296568,8.91528672 L0.491802639,8.91528672 C0.332337221,8.91528672 0.185219789,8.83021985 0.107251078,8.69250914 C0.028929567,8.55479843 0.0321047634,8.3867565 0.115365468,8.25218351 L5.06937742,0.238466139 C5.14911013,0.109471298 5.29022997,0.0306798542 5.44334499,0.0296339501 L5.44581459,0.0296339501 C5.59787122,0.0296339501 5.73863826,0.107030855 5.81942936,0.233933888 L10.8676388,8.19012653 C10.9364347,8.2671748 10.9780651,8.36827886 10.9780651,8.4791447 C10.9777123,8.72039992 10.7804973,8.91528672 10.5367128,8.91528672 L10.5367128,8.91528672 Z M1.27784014,8.04369995 L9.7330353,8.04369995 L5.45040098,1.2937834 L1.27784014,8.04369995 L1.27784014,8.04369995 Z" id="Shape"></path>
                        <path d="M20.6214893,8.91528672 C20.6197253,8.91528672 20.6172557,8.91563535 20.6144333,8.91528672 L10.5300096,8.91528672 C10.3701914,8.91528672 10.2227211,8.82952258 10.1447524,8.69146324 C10.0667837,8.55340389 10.0706645,8.38396743 10.1549836,8.24974306 L15.1820251,0.236025696 C15.2624634,0.108076759 15.403936,0.0299825848 15.5563455,0.0296339501 L15.5570511,0.0296339501 C15.7094605,0.0296339501 15.8505803,0.10737949 15.9313714,0.234979792 L20.9527681,8.1908238 C21.0212112,8.26787207 21.0628416,8.3686275 21.0628416,8.4791447 C21.0624888,8.72039992 20.8652738,8.91528672 20.6214893,8.91528672 L20.6214893,8.91528672 Z M11.3220447,8.04369995 L19.8199286,8.04369995 L15.5581095,1.29099432 L11.3220447,8.04369995 L11.3220447,8.04369995 Z" id="Shape"></path>
                        <path d="M30.5707907,8.91528672 C30.5690267,8.91528672 30.5662043,8.91563535 30.5637347,8.91528672 L20.6147861,8.91528672 C20.4549679,8.91528672 20.3078504,8.82987122 20.2295289,8.69181187 C20.1515602,8.55375253 20.155441,8.38536196 20.2390545,8.25078897 L25.2336384,0.237071601 C25.3140767,0.108076759 25.456255,0.0296339501 25.6090172,0.0296339501 L25.6097228,0.0296339501 C25.7631906,0.0299825848 25.9053689,0.109122663 25.9851016,0.238466139 L30.9038336,8.19396151 C30.9708655,8.27031251 31.0114374,8.37002204 31.0114374,8.4791447 C31.0117902,8.72039992 30.8145753,8.91528672 30.5707907,8.91528672 L30.5707907,8.91528672 Z M21.4043516,8.04369995 L29.7776972,8.04369995 L25.6079588,1.29936155 L21.4043516,8.04369995 L21.4043516,8.04369995 Z" id="Shape"></path>
                        <path d="M15.6131462,24.3744469 C15.4935471,24.3744469 15.3792401,24.3263353 15.2963322,24.2416171 L0.165463011,8.7824569 C0.0423359517,8.6569484 0.00740879155,8.4700802 0.0765575127,8.3093596 C0.145353434,8.14829036 0.305171652,8.04369995 0.48227705,8.04369995 L30.5640875,8.04369995 C30.7404873,8.04369995 30.8999528,8.14794173 30.9694543,8.30831369 C31.038603,8.46868566 31.0047342,8.65450796 30.8826656,8.78036509 L15.9317242,24.2395252 C15.8491691,24.3252894 15.7341565,24.3740982 15.6145574,24.3744469 L15.6131462,24.3744469 L15.6131462,24.3744469 Z M1.52233026,8.91528672 L15.6110294,23.3097165 L29.5325015,8.91528672 L1.52233026,8.91528672 L1.52233026,8.91528672 Z" id="Shape"></path>
                        <path d="M15.6131462,24.3744469 C15.4272208,24.3744469 15.2539962,24.2573056 15.1940203,24.0735751 L10.1105309,8.61441497 C10.0350318,8.38536196 10.1620396,8.1395745 10.3934761,8.0653153 C10.6263239,7.99070748 10.874342,8.11621597 10.9491355,8.34492034 L16.0322721,23.8040805 C16.1077712,24.0331335 15.9807634,24.278921 15.7493268,24.3531802 C15.7041685,24.3678228 15.6583045,24.3744469 15.6131462,24.3744469 L15.6131462,24.3744469 Z" id="Shape"></path>
                        <path d="M15.6279638,24.3744469 C15.5838638,24.3744469 15.5387055,24.3678228 15.4938999,24.3538774 C15.2621106,24.2806641 15.1336915,24.0355739 15.2074267,23.8061723 L20.194249,8.34701215 C20.2683369,8.11830778 20.5138854,7.99105611 20.7484971,8.06392076 C20.9802865,8.13713405 21.1087055,8.38222425 21.0349704,8.61162589 L16.0481481,24.0711347 C15.9881722,24.2562597 15.8149476,24.3744469 15.6279638,24.3744469 L15.6279638,24.3744469 Z" id="Shape"></path>
                    </g>
                    <g id="Dots">
                        <ellipse id="Oval" cx="6.27992396" cy="2.20363447" rx="1.78748759" ry="1.76290757"></ellipse>
                        <ellipse id="Oval" cx="16.5111123" cy="2.20363447" rx="1.78748759" ry="1.76290757"></ellipse>
                        <ellipse id="Oval" cx="26.389501" cy="2.20363447" rx="1.78748759" ry="1.76290757"></ellipse>
                        <ellipse id="Oval" cx="31.3987086" cy="10.2248424" rx="1.78748759" ry="1.76290757"></ellipse>
                        <ellipse id="Oval" cx="16.5610932" cy="24.680706" rx="1.78748759" ry="1.76290757"></ellipse>
                        <ellipse id="Oval" cx="21.449851" cy="10.2248424" rx="1.78748759" ry="1.76290757"></ellipse>
                        <ellipse id="Oval" cx="11.6186693" cy="10.2248424" rx="1.78748759" ry="1.76290757"></ellipse>
                        <ellipse id="Oval" cx="1.78748759" cy="10.2248424" rx="1.78748759" ry="1.76290757"></ellipse>
                    </g>
                </g>
            </g>
        </g>
    </g>
</svg>