<?xml version="1.0" encoding="UTF-8" standalone="no"?>
<svg width="249px" height="53px" viewBox="0 0 249 53" version="1.1" xmlns="http://www.w3.org/2000/svg" xmlns:xlink="http://www.w3.org/1999/xlink" xmlns:sketch="http://www.bohemiancoding.com/sketch/ns">
    <!-- Generator: Sketch 3.2.1 (9971) - http://www.bohemiancoding.com/sketch -->
    <title>logo H</title>
    <desc>Created with Sketch.</desc>
    <defs></defs>
    <g id="Page-1" stroke="none" stroke-width="1" fill="none" fill-rule="evenodd" sketch:type="MSPage">
        <g id="logo-H" sketch:type="MSLayerGroup">
            <g id="typo-7" transform="translate(64.988615, 3.806931)" fill="#2D2D2D" sketch:type="MSShapeGroup">
                <path d="M0.107385199,35.1930693 L5.7393852,35.1930693 L6.8593852,31.7690693 L14.6993852,31.7690693 L15.8193852,35.1930693 L21.4833852,35.1930693 L13.4833852,11.8330693 L8.1073852,11.8330693 L0.107385199,35.1930693 Z M10.7953852,19.8650693 L13.0353852,26.6810693 L8.5553852,26.6810693 L10.7953852,19.8650693 Z M32.2033847,35.5450693 C37.6433847,35.5450693 40.7473847,31.8970693 40.7473847,27.8970693 C40.7473847,23.2570693 37.0353847,21.8490693 33.8993847,20.8890693 C31.5953847,20.1850693 29.5793847,19.7050693 29.5793847,18.2970693 C29.5793847,17.2090693 30.5073847,16.3450693 32.1073847,16.3450693 C33.6753847,16.3450693 35.0513847,17.2090693 35.9153847,18.6170693 L40.3953847,15.1930693 C38.6033847,13.1770693 36.2033847,11.4810693 32.0753847,11.4810693 C27.2753847,11.4810693 23.9473847,14.5850693 23.9473847,18.6490693 C23.9473847,23.2890693 27.5633847,24.6010693 30.6353847,25.4970693 C32.9073847,26.1690693 34.9553847,26.6170693 34.9553847,28.0570693 C34.9553847,29.2090693 33.8993847,30.2970693 32.2033847,30.2970693 C30.4753847,30.2970693 28.8113847,29.2730693 27.7233847,27.4490693 L22.8273847,31.2890693 C24.8753847,33.5610693 27.5313847,35.5450693 32.2033847,35.5450693 L32.2033847,35.5450693 Z M43.5313843,35.1930693 L49.0673843,35.1930693 L49.0673843,29.5930693 L43.5313843,29.5930693 L43.5313843,35.1930693 Z M65.0033838,35.5130693 C69.8673838,35.5130693 73.7073838,32.8890693 75.7233838,29.0490693 L73.5153838,27.8970693 C71.9793838,31.0010693 69.0673838,33.1450693 65.0033838,33.1450693 C59.6273838,33.1450693 55.5633838,28.7930693 55.5633838,23.5130693 C55.5633838,18.2330693 59.6273838,13.8810693 65.0033838,13.8810693 C68.6193838,13.8810693 71.6593838,15.8650693 73.2593838,18.7770693 L75.4033838,17.5290693 C73.3233838,13.9450693 69.4513838,11.5130693 65.0033838,11.5130693 C58.3793838,11.5130693 53.0033838,16.8890693 53.0033838,23.5130693 C53.0033838,30.1370693 58.3793838,35.5130693 65.0033838,35.5130693 L65.0033838,35.5130693 Z M80.4913834,35.1930693 L82.9873834,35.1930693 L82.9873834,14.1370693 L87.4673834,14.1370693 C90.9553834,14.1370693 93.0993834,16.3130693 93.0993834,19.2570693 C93.0993834,21.8810693 90.9553834,24.5050693 87.4353834,24.5050693 L85.8353834,24.5050693 L92.8753834,35.1930693 L95.7873834,35.1930693 L89.8673834,26.3610693 C93.4513834,25.5610693 95.5953834,22.5530693 95.5953834,19.2570693 C95.5953834,15.1290693 92.2353834,11.8330693 87.6593834,11.8330693 L80.4913834,11.8330693 L80.4913834,35.1930693 Z M112.555383,35.5130693 C119.179383,35.5130693 124.555383,30.1370693 124.555383,23.5130693 C124.555383,16.8890693 119.179383,11.5130693 112.555383,11.5130693 C105.931383,11.5130693 100.555383,16.8890693 100.555383,23.5130693 C100.555383,30.1370693 105.931383,35.5130693 112.555383,35.5130693 L112.555383,35.5130693 Z M112.555383,33.1450693 C107.179383,33.1450693 103.115383,28.7930693 103.115383,23.5130693 C103.115383,18.2330693 107.179383,13.8810693 112.555383,13.8810693 C117.931383,13.8810693 121.995383,18.2330693 121.995383,23.5130693 C121.995383,28.7930693 117.931383,33.1450693 112.555383,33.1450693 L112.555383,33.1450693 Z M134.475382,35.1930693 L137.035382,35.1930693 L143.467382,15.7370693 L149.835382,35.1930693 L152.363382,35.1930693 L159.563382,11.8330693 L157.003382,11.8330693 L151.115382,31.3530693 L144.715382,11.8330693 L142.315382,11.8330693 L135.851382,31.3210693 L130.283382,11.8330693 L127.627382,11.8330693 L134.475382,35.1930693 Z M164.619382,35.1930693 L171.243382,35.1930693 C178.123382,35.1930693 183.307382,30.1690693 183.307382,23.5130693 C183.307382,16.8890693 178.411382,11.8330693 171.147382,11.8330693 L164.619382,11.8330693 L164.619382,35.1930693 Z M170.955382,14.1370693 C176.971382,14.1370693 180.747382,18.1690693 180.747382,23.5130693 C180.747382,28.8250693 176.715382,32.8570693 171.051382,32.8570693 L167.115382,32.8570693 L167.115382,14.1370693 L170.955382,14.1370693 Z" id="AS.CROWD"></path>
            </g>
            <g id="diamond" sketch:type="MSShapeGroup">
                <ellipse id="BG" fill="#FE5AB3" cx="26.4478178" cy="26.5" rx="26.4478178" ry="26.5"></ellipse>
                <g id="Icon-+-Dots" transform="translate(7.000000, 13.000000)" fill="#000000">
                    <g id="Icon" transform="translate(1.135896, 2.155196)">
                        <path d="M24.2796369,10.7388681 C24.1001325,10.7388681 23.9339247,10.6452201 23.8387707,10.4915197 L17.8818828,0.840312649 C17.7821581,0.678633304 17.7767564,0.474959323 17.8685862,0.307820675 C17.9600005,0.141101974 18.1341032,0.0373752253 18.322749,0.0373752253 L30.1621469,0.0356954399 C30.3503772,0.0356954399 30.5236489,0.138582296 30.6154787,0.304881051 C30.707724,0.471179806 30.7031533,0.674013894 30.6046752,0.836113185 L24.7217497,10.48942 C24.6274268,10.6439602 24.4608035,10.7388681 24.2808835,10.739288 C24.280468,10.7388681 24.2800525,10.7388681 24.2796369,10.7388681 L24.2796369,10.7388681 Z M19.2589145,1.08766105 L24.2767283,9.21740246 L29.2322142,1.08598126 L19.2589145,1.08766105 L19.2589145,1.08766105 Z" id="Shape"></path>
                        <path d="M12.4020113,10.7388681 C12.2229224,10.7388681 12.0571301,10.64564 11.9619761,10.4927795 L5.97392423,0.841572488 C5.8733685,0.679893143 5.86796675,0.475799216 5.95938104,0.308240622 C6.05079534,0.14152192 6.22489802,0.0373752253 6.41395941,0.0373752253 L18.322749,0.0356954399 C18.5109794,0.0356954399 18.6846665,0.139002242 18.7764963,0.305300997 C18.8683262,0.471599752 18.8637554,0.675693679 18.7644463,0.837373024 L12.843293,10.4902599 C12.7485546,10.6443802 12.5823468,10.7384481 12.4028423,10.7388681 C12.4028423,10.7388681 12.4024268,10.7388681 12.4020113,10.7388681 L12.4020113,10.7388681 Z M7.35220249,1.08766105 L12.3991027,9.22202187 L17.3894922,1.08598126 L7.35220249,1.08766105 L7.35220249,1.08766105 Z" id="Shape"></path>
                        <path d="M12.4099062,10.7388681 C12.4078286,10.7388681 12.4045044,10.739288 12.4015958,10.7388681 L0.579234219,10.7388681 C0.391419394,10.7388681 0.218147751,10.6364012 0.126317936,10.4705224 C0.0340726011,10.3046436 0.0378122769,10.1022294 0.135874885,9.94013013 L5.97060007,0.287243304 C6.06450748,0.131863154 6.23071529,0.0369552789 6.41105077,0.0356954399 L6.41395941,0.0356954399 C6.59304832,0.0356954399 6.75884061,0.12892353 6.85399458,0.281784002 L12.7996635,9.86537968 C12.8806898,9.95818783 12.9297211,10.0799723 12.9297211,10.2135152 C12.9293056,10.5041181 12.6970302,10.7388681 12.4099062,10.7388681 L12.4099062,10.7388681 Z M1.50501172,9.68900221 L11.4633527,9.68900221 L6.41936116,1.55842091 L1.50501172,9.68900221 L1.50501172,9.68900221 Z" id="Shape"></path>
                        <path d="M24.2875318,10.7388681 C24.2854542,10.7388681 24.2825456,10.739288 24.2792214,10.7388681 L12.4020113,10.7388681 C12.213781,10.7388681 12.0400938,10.6355613 11.948264,10.4692625 C11.8564342,10.3029638 11.8610049,10.0988699 11.960314,9.93719051 L17.8810518,0.28430368 C17.9757902,0.130183369 18.1424135,0.0361153862 18.321918,0.0356954399 L18.322749,0.0356954399 C18.5022535,0.0356954399 18.6684613,0.129343476 18.7636152,0.283043841 L24.6777047,9.86621957 C24.7583154,9.95902772 24.8073467,10.0803922 24.8073467,10.2135152 C24.8069312,10.5041181 24.5746558,10.7388681 24.2875318,10.7388681 L24.2875318,10.7388681 Z M13.3348526,9.68900221 L23.3434715,9.68900221 L18.3239956,1.55506134 L13.3348526,9.68900221 L13.3348526,9.68900221 Z" id="Shape"></path>
                        <path d="M36.005598,10.7388681 C36.0035204,10.7388681 36.0001962,10.739288 35.9972876,10.7388681 L24.2796369,10.7388681 C24.0914066,10.7388681 23.918135,10.6359812 23.8258896,10.4696825 C23.7340598,10.3033837 23.7386305,10.1005496 23.8371087,9.93845035 L29.7196186,0.285563519 C29.814357,0.130183369 29.9818114,0.0356954399 30.1617314,0.0356954399 L30.1625624,0.0356954399 C30.3433134,0.0361153862 30.5107678,0.131443208 30.6046752,0.287243304 L36.3978484,9.86999909 C36.4767971,9.96196734 36.5245819,10.082072 36.5245819,10.2135152 C36.5249974,10.5041181 36.292722,10.7388681 36.005598,10.7388681 L36.005598,10.7388681 Z M25.2095696,9.68900221 L35.0715101,9.68900221 L30.1604848,1.56514005 L25.2095696,9.68900221 L25.2095696,9.68900221 Z" id="Shape"></path>
                        <path d="M18.3888166,29.3601292 C18.2479555,29.3601292 18.1133272,29.3021766 18.0156801,29.2001296 L0.194878658,10.5788685 C0.0498623431,10.4276878 0.00872591005,10.2025966 0.0901677372,10.0090013 C0.171194045,9.81498612 0.35942439,9.68900221 0.568015192,9.68900221 L35.9977031,9.68900221 C36.2054629,9.68900221 36.3932777,9.81456617 36.475135,10.0077415 C36.5565769,10.2009168 36.516687,10.4247482 36.3729172,10.5763489 L18.7640308,29.19761 C18.6667992,29.3009168 18.5313398,29.3597093 18.3904787,29.3601292 L18.3888166,29.3601292 L18.3888166,29.3601292 Z M1.79296676,10.7388681 L18.3863235,28.077613 L34.782724,10.7388681 L1.79296676,10.7388681 L1.79296676,10.7388681 Z" id="Shape"></path>
                        <path d="M18.3888166,29.3601292 C18.1698378,29.3601292 17.9658178,29.2190272 17.8951794,28.9977155 L11.9079586,10.3764544 C11.8190374,10.1005496 11.9686244,9.80448746 12.2412052,9.71503889 C12.5154481,9.62517037 12.8075584,9.77635106 12.8956485,10.0518359 L18.8824538,28.673097 C18.971375,28.9490017 18.821788,29.2450639 18.5492072,29.3345125 C18.4960207,29.3521502 18.4420031,29.3601292 18.3888166,29.3601292 L18.3888166,29.3601292 Z" id="Shape"></path>
                        <path d="M18.4062684,29.3601292 C18.3543285,29.3601292 18.301142,29.3521502 18.248371,29.3353524 C17.9753747,29.2471636 17.8241256,28.9519413 17.9109692,28.6756166 L23.7843377,10.0543555 C23.8715968,9.77887073 24.1607984,9.62559032 24.4371188,9.7133591 C24.7101152,9.80154784 24.8613643,10.0967701 24.7745207,10.3730948 L18.9011522,28.9947759 C18.8305139,29.2177674 18.6264938,29.3601292 18.4062684,29.3601292 L18.4062684,29.3601292 Z" id="Shape"></path>
                    </g>
                    <g id="Dots">
                        <ellipse id="Oval" cx="7.39635489" cy="2.65437788" rx="2.10526316" ry="2.1235023"></ellipse>
                        <ellipse id="Oval" cx="19.4464211" cy="2.65437788" rx="2.10526316" ry="2.1235023"></ellipse>
                        <ellipse id="Oval" cx="31.0809679" cy="2.65437788" rx="2.10526316" ry="2.1235023"></ellipse>
                        <ellipse id="Oval" cx="36.9807012" cy="12.3162874" rx="2.10526316" ry="2.1235023"></ellipse>
                        <ellipse id="Oval" cx="19.4464211" cy="29.7290323" rx="2.10526316" ry="2.1235023"></ellipse>
                        <ellipse id="Oval" cx="25.2631579" cy="12.3162874" rx="2.10526316" ry="2.1235023"></ellipse>
                        <ellipse id="Oval" cx="13.6842105" cy="12.3162874" rx="2.10526316" ry="2.1235023"></ellipse>
                        <ellipse id="Oval" cx="2.10526316" cy="12.3162874" rx="2.10526316" ry="2.1235023"></ellipse>
                    </g>
                </g>
            </g>
        </g>
    </g>
</svg>